# xmcd
#
# Track frame offsets:
#	150
#	16327
#	29117
#	43453
#	59743
#	77202
#	82588
#	97112
#	102426
#	112620
#	117571
#	127509
#	148788
#
# Disc length: 2584 seconds
#
# Revision: 1
# Processed by: cddbd v1.5.2PL0 Copyright (c) Steve Scherf et al.
# Submitted via: audiograbber 1.83.01
#
DISCID=af0a160d
DTITLE=Various Artist - Desolatevoid - The Last Van Zant - The Parish
DYEAR=2010
DGENRE=Metal
TTITLE0=Desolatevoid - -I3
TTITLE1=Desolatevoid - Reburn
TTITLE2=Desolatevoid - Ungrateful Bastard
TTITLE3=Desolatevoid - Expect the Worst
TTITLE4=Desolatevoid - Broken Bones and Bullet Holes
TTITLE5=The Last Van Zant - Dog From Hell
TTITLE6=The Last Van Zant - War All the Time
TTITLE7=The Last Van Zant - Standing in Blood
TTITLE8=The Last Van Zant - Learning
TTITLE9=The Last Van Zant - Way of the Future
TTITLE10=The Last Van Zant - Born of Death
TTITLE11=The Parish - Suffer
TTITLE12=The Parish - Dark Days
EXTD=
EXTT0=
EXTT1=
EXTT2=
EXTT3=
EXTT4=
EXTT5=
EXTT6=
EXTT7=
EXTT8=
EXTT9=
EXTT10=
EXTT11=
EXTT12=
PLAYORDER=
